<svg width="873" height="931" viewBox="0 0 873 931" fill="none" xmlns="http://www.w3.org/2000/svg">
<path fill-rule="evenodd" clip-rule="evenodd" d="M0 -0.00201416L35.7744 -2.26716C71.5487 -4.53231 143.097 -9.0626 185.941 23.8144C228.784 56.6913 242.921 126.976 271.412 178.556C299.902 230.137 342.745 263.014 399.941 277.187C457.137 291.36 528.686 286.83 600.235 282.3C671.784 277.769 743.332 273.239 786.175 306.116C829.019 338.993 843.156 409.277 900.352 423.451C957.548 437.624 1057.8 395.686 1115 409.86C1172.19 424.033 1186.33 494.317 1200.47 564.601C1214.61 634.886 1228.74 705.17 1250.06 766.102C1271.37 827.035 1299.86 878.615 1314.11 904.406L1328.35 930.196L1672.82 481.309L1651.4 464.87C1629.98 448.432 1587.13 415.555 1544.29 382.678C1501.45 349.801 1458.6 316.924 1415.76 284.047C1372.92 251.17 1330.07 218.293 1287.23 185.416C1244.39 152.539 1201.55 119.662 1158.7 86.7853C1115.86 53.9083 1073.02 21.0314 1030.17 -11.8456C987.329 -44.7226 944.486 -77.5995 901.643 -110.476C858.8 -143.353 815.957 -176.23 773.113 -209.107C730.27 -241.984 687.427 -274.861 644.584 -307.738C601.741 -340.615 558.898 -373.492 516.054 -406.369C473.211 -439.246 430.368 -472.123 408.946 -488.562L387.525 -505L0 -0.00201416Z" fill="#035630"/>
</svg>
